<svg width="100" height="30" viewBox="0 0 100 30" fill="none" xmlns="http://www.w3.org/2000/svg">
<path d="M91.7019 14.464H88.1657C85.8874 14.464 84.6709 16.1651 84.6709 19.0105V29.2889H77.9595V14.464H75.1141C72.8357 14.464 71.6192 16.1651 71.6192 19.0105V29.2889H64.9078V8.97946H71.6192V12.062C72.7223 9.67019 74.2275 8.97946 76.4646 8.97946H84.6812V12.062C85.7843 9.67019 87.2895 8.97946 89.5266 8.97946H91.7225L91.7019 14.464ZM63.4233 20.7218H49.4334C49.8046 23.0002 51.2273 24.2992 53.619 24.2992C55.4129 24.2992 56.6706 23.5672 57.0727 22.2682L63.0109 23.9384C61.547 27.4745 57.9284 29.6291 53.6087 29.6291C46.3303 29.6291 42.9901 23.9796 42.9901 19.1445C42.9901 14.3919 45.9179 8.70111 53.2067 8.70111C60.9387 8.70111 63.4954 14.4744 63.4954 18.7321C63.5057 19.66 63.4645 20.2682 63.4233 20.7218ZM56.918 16.7733C56.7531 15.0311 55.4953 13.4022 53.217 13.4022C51.1036 13.4022 49.8355 14.3403 49.4334 16.7733H56.918ZM31.2889 29.2889H37.1859L44.5468 8.97946H37.7942L34.2168 20.8043L30.557 8.97946H23.8456L31.2889 29.2889ZM3.78354 29.2889H10.4537V14.464H16.8043V29.2889H23.4332V8.97946H10.4537V7.72172C10.4537 6.34026 11.4331 5.48459 12.9795 5.48459H16.8043V0H11.8867C7.0413 0 3.79385 2.9691 3.79385 7.30934V8.97946H0V14.464H3.78354V29.2889Z" fill="#003912"/>
<path d="M95.8461 29.8971C98.1451 29.8971 100.001 28.0414 100.001 25.7528C100.001 23.4641 98.1451 21.6084 95.8461 21.6084C93.5471 21.6084 91.6914 23.4641 91.6914 25.7528C91.7017 28.0414 93.5574 29.8971 95.8461 29.8971Z" fill="#1DBF73"/>
</svg>
