<svg width="897" height="1021" viewBox="0 0 897 1021" fill="none" xmlns="http://www.w3.org/2000/svg"><path d="M613.344 110.033c78.925 35.227 114.249 123.041 141.347 203.063 28.72 84.952 76.744 173.694 73.471 267.56-2.992 87.262-52.904 171.794-113.437 228.146-64.245 59.819-141.422 102.09-221.497 129.91-75.456 26.213-147.435 30.311-221.313-6.132-71.893-35.455-125.962-121.48-144.934-202.242-19.099-81.307-37.737-162.376-50.441-246.06-6.233-41.185-11.197-83.873-8.859-125.918 2.401-42.932 13.204-78.192 38.357-110.937C222.08 96.689 444.897 46.496 613.344 110.033zM775.439 270.831c1.66-3.317 2.864-4.073 3.967-5.759 1.327-2.028 3.228-3.519 5.129-4.977 4.056-3.122 9.139-3.388 14.116-2.907 4.951.478 8.859 3.647 12.463 6.824 3.659 3.227 6.764 6.848 8.703 11.373 2.239 5.222 2.856 9.984 1.88 15.577-.802 4.601-2.877 8.957-6.341 12.155-1.716 1.585-3.68 2.539-5.826 3.397-1.128.452-2.244 1.01-3.397 1.39-1.466.482-2.7.275-4.187.152-5.594-.456-10.981.52-16.498-1.107-4.66-1.377-9.097-3.98-11.974-7.985-1.588-2.209-2.07-5.112-2.408-7.765-.182-1.432.051-2.751.22-4.174.105-.904-.055-4.069.625-4.787 1.272-4.474.554-6.608 3.528-11.407z" fill="#FFA32B"/></svg>